<svg width="412" height="550" viewBox="0 0 412 550" fill="none" xmlns="http://www.w3.org/2000/svg">
<path d="M225.457 246.074C223.615 246.074 223.615 249.494 225.457 249.494C229.842 249.494 290.932 248.486 296.062 247.477C296.53 247.407 296.956 247.171 297.265 246.813C297.573 246.455 297.743 245.998 297.743 245.526C297.743 245.053 297.573 244.596 297.265 244.238C296.956 243.88 296.53 243.644 296.062 243.574C279.968 241.469 243.174 245.723 225.457 246.074ZM249.928 335.625C247.91 335.625 248.261 339.001 250.191 339.089C264.487 339.571 286.765 338.826 301.369 338.168C304.044 338.168 304.351 333.783 301.369 333.783C285.011 333.87 266.329 334.09 249.928 335.625ZM251.813 184.371C251.388 184.389 250.984 184.561 250.677 184.855C250.369 185.149 250.179 185.545 250.142 185.968C250.104 186.392 250.222 186.815 250.473 187.158C250.724 187.502 251.091 187.742 251.506 187.835C259.356 188.8 284.836 189.809 292.51 186.563C292.903 186.369 293.222 186.051 293.418 185.659C293.614 185.267 293.678 184.822 293.598 184.391C293.519 183.96 293.301 183.566 292.979 183.27C292.656 182.973 292.245 182.79 291.809 182.748C281.634 182.134 265.321 185.379 251.813 184.371ZM201.732 269.097C238.745 268.571 280.67 265.984 318.033 262.563C320.358 262.563 320.139 258.178 317.727 258.178C280.977 259.099 238.043 261.511 201.512 265.282C201.006 265.311 200.533 265.54 200.196 265.918C199.858 266.297 199.685 266.793 199.714 267.299C199.743 267.805 199.972 268.279 200.351 268.616C200.729 268.953 201.226 269.126 201.732 269.097ZM254.795 73.7698C265.101 72.9805 275.407 72.3665 285.494 71.1386C288.388 70.8316 287.642 66.7531 284.792 66.7531C274.53 67.5425 264.268 68.8581 254.094 70.0422C251.726 70.3053 252.383 73.9453 254.795 73.7698ZM194.627 165.25C192.434 165.25 192.347 168.978 194.627 169.153C219.42 170.308 244.263 168.571 268.653 163.978C271.416 163.496 270.978 159.111 268.171 159.593C243.882 163.735 219.264 165.629 194.627 165.25ZM276.24 94.7761C280.056 95.6971 280.626 89.4697 277.117 90.0837C260.001 92.8587 242.653 93.931 225.325 93.2851C223.001 93.2851 222.475 96.6618 224.843 96.925C241.991 98.6464 259.296 97.9229 276.24 94.7761ZM181.252 267.036C177.831 265.721 162.043 267.913 157.614 268.396C155.465 268.396 155.378 271.86 157.614 271.816L175.551 271.246C183.839 270.939 183.795 268.045 181.252 267.036ZM199.363 456.794C195.68 455.917 169.499 457.891 165.201 458.154C162.921 458.154 163.359 461.662 165.639 461.618C170.288 461.618 195.767 461.618 199.802 460.346C201.6 459.732 200.986 457.145 199.363 456.794ZM165.157 438.244C177.48 438.814 208.003 439.34 220.326 436.402C220.614 436.4 220.898 436.337 221.16 436.218C221.423 436.1 221.657 435.927 221.849 435.712C222.04 435.497 222.185 435.245 222.273 434.97C222.361 434.696 222.39 434.407 222.359 434.12C222.329 433.834 222.238 433.558 222.094 433.308C221.95 433.059 221.755 432.843 221.522 432.674C221.289 432.504 221.023 432.386 220.742 432.325C220.46 432.265 220.169 432.264 219.887 432.323C201.863 432.323 185.155 435.349 165.683 434.56C163.359 434.472 162.745 438.112 165.157 438.244ZM207.696 360.271C210.327 359.788 210.108 355.885 207.345 355.885C187.874 357.859 183.795 358.341 163.841 359.13C161.912 359.13 161.693 362.463 163.841 362.595C178.5 363.568 193.222 362.788 207.696 360.271ZM234.71 332.686C210.853 333.563 186.076 337.598 161.166 338.475C160.721 338.544 160.315 338.769 160.022 339.111C159.729 339.453 159.567 339.888 159.567 340.339C159.567 340.789 159.729 341.225 160.022 341.567C160.315 341.909 160.721 342.134 161.166 342.203C181.822 342.203 215.063 341.238 235.193 336.765C235.613 336.579 235.962 336.263 236.189 335.864C236.417 335.465 236.51 335.004 236.457 334.547C236.403 334.091 236.204 333.664 235.89 333.329C235.575 332.995 235.162 332.769 234.71 332.686ZM315.972 446.05C315.622 446.05 291.545 448.023 287.423 447.892C287.033 447.962 286.675 448.156 286.404 448.446C286.133 448.735 285.962 449.105 285.918 449.499C285.874 449.893 285.958 450.291 286.158 450.634C286.358 450.976 286.663 451.245 287.028 451.4C291.94 452.321 312.639 452.672 316.893 449.076C317.108 448.84 317.257 448.552 317.327 448.241C317.397 447.93 317.384 447.606 317.292 447.301C317.199 446.997 317.029 446.721 316.797 446.501C316.566 446.282 316.282 446.126 315.972 446.05ZM323.735 350.403C293.343 352.377 259.4 353.517 229.141 356.105C226.773 356.105 227.211 359.657 229.492 359.788C245.849 360.271 304.044 357.289 324.129 354.745C324.416 354.723 324.695 354.644 324.951 354.512C325.206 354.381 325.433 354.199 325.617 353.978C325.801 353.757 325.938 353.502 326.022 353.227C326.105 352.952 326.133 352.663 326.103 352.377C326.047 351.803 325.767 351.273 325.324 350.904C324.881 350.534 324.31 350.355 323.735 350.403ZM209.582 250.679C210.163 250.679 210.721 250.447 211.132 250.036C211.543 249.625 211.774 249.067 211.774 248.486C211.774 247.904 211.543 247.347 211.132 246.935C210.721 246.524 210.163 246.293 209.582 246.293C190.68 246.775 171.604 246.907 152.571 248.354C152.162 248.445 151.796 248.673 151.534 249C151.271 249.327 151.129 249.733 151.129 250.152C151.129 250.571 151.271 250.978 151.534 251.305C151.796 251.632 152.162 251.859 152.571 251.95C171.691 252.301 190.68 251.292 209.582 250.679ZM284.353 427.719C277.687 427.719 253.655 429.429 247.954 430.438C246.112 430.745 245.849 433.771 247.954 433.858C254.138 434.165 278.038 432.63 284.967 432.017C287.642 432.104 287.072 427.719 284.353 427.719ZM271.548 452.321L216.423 455.829C213.923 455.829 214.537 459.645 216.993 459.513C227.693 459.031 262.119 457.671 271.767 456.356C273.916 456.093 273.96 452.321 271.548 452.321ZM232.079 71.1386C215.897 69.2967 165.113 72.3665 147.878 74.1207C145.51 74.3399 145.335 78.0237 147.878 77.8044C176.208 75.9626 203.793 75.3486 232.123 75.4363C232.617 75.3307 233.06 75.0573 233.377 74.6624C233.693 74.2675 233.863 73.7754 233.858 73.2695C233.853 72.7636 233.673 72.2751 233.348 71.8867C233.024 71.4984 232.576 71.234 232.079 71.1386ZM236.771 189.502C239.534 189.107 238.525 185.116 235.763 185.116C207.536 188.332 179.137 189.797 150.729 189.502C150.317 189.567 149.942 189.778 149.671 190.095C149.4 190.413 149.251 190.817 149.251 191.234C149.251 191.651 149.4 192.055 149.671 192.372C149.942 192.69 150.317 192.9 150.729 192.966C179.456 194.35 208.249 193.19 236.771 189.502ZM206.994 97.6705C207.283 97.6431 207.563 97.5588 207.819 97.4224C208.074 97.2861 208.3 97.1004 208.484 96.8761C208.667 96.6518 208.805 96.3934 208.888 96.1157C208.971 95.8381 208.998 95.5467 208.968 95.2585C208.94 94.97 208.856 94.6898 208.72 94.4341C208.583 94.1784 208.398 93.9522 208.173 93.7687C207.949 93.5852 207.691 93.448 207.413 93.3649C207.135 93.2819 206.844 93.2548 206.556 93.2851C187.216 95.6971 168.885 95.7847 149.808 97.4512C147.791 97.6705 147.571 100.96 149.808 101.047C168.928 101.356 188.044 100.228 206.994 97.6705ZM152.659 167.092C150.466 167.092 150.422 170.557 152.922 170.644C160.792 171.385 168.704 171.591 176.603 171.258C176.959 171.099 177.261 170.841 177.473 170.514C177.685 170.187 177.798 169.806 177.798 169.416C177.798 169.027 177.685 168.645 177.473 168.319C177.261 167.992 176.959 167.733 176.603 167.574C175.814 167.136 156.693 167.092 152.659 167.092ZM97.9283 192.352C100.472 192.352 109.901 176.74 115.207 171.39C117.136 169.46 113.979 166.215 112.006 168.057C106.411 173.101 101.567 178.919 97.6213 185.335L86.5261 175.117C84.2457 173.012 81.3074 176.608 83.4125 178.757C85.5175 180.906 94.683 192.352 97.9283 192.352ZM67.9319 120.738C85.9122 121.79 104.594 121.44 124.329 121.571C125.732 121.571 126.565 117.668 124.329 71.0947C124.329 67.7179 124.022 65.2182 123.978 64.2973C123.989 64.1615 123.971 64.0248 123.926 63.8963C123.881 63.7678 123.809 63.6504 123.715 63.5518C122.443 62.1923 114.154 62.28 95.5163 62.7624C64.1604 63.5079 60.6959 63.2886 60.6959 65.0867C60.5643 65.4375 62.5378 120.212 67.9319 120.738ZM69.1598 117.493C66.9671 105.784 65.3883 81.0497 64.0288 67.1917C76.7904 67.9372 105.866 66.49 120.513 66.1392C120.513 66.1392 121.303 105.126 121.653 117.712C104.463 117.317 86.5261 116.659 68.9844 117.273L69.1598 117.493Z" fill="#252525"/>
<path d="M130.38 203.798C134.064 202.351 129.766 161.479 129.152 150.734C129.123 150.514 129.013 150.311 128.845 150.164C126.214 147.884 70.563 150.91 67.7563 151.129C64.9496 151.348 67.7563 166.61 68.2387 177.003C69.2474 202.877 70.4314 205.114 71.747 205.289C81.3073 206.649 121.61 207.219 130.38 203.798ZM70.4314 154.725C89.4204 153.497 108.672 153.41 125.776 153.322C126.214 163.584 126.916 192.484 127.793 200.29C109.92 202.139 91.9333 202.652 73.9836 201.825C74.7291 195.291 71.0892 162.137 70.4314 154.725ZM106.129 265.458L116.303 256.248C116.6 255.747 116.73 255.165 116.676 254.585C116.622 254.005 116.386 253.457 116.002 253.019C115.617 252.581 115.105 252.276 114.537 252.147C113.968 252.018 113.374 252.072 112.839 252.301C108.673 254.867 104.893 258.012 101.612 261.642L92.4902 253.222C91.9959 252.763 91.3393 252.519 90.6649 252.543C89.9905 252.568 89.3535 252.859 88.8941 253.354C88.4347 253.848 88.1904 254.505 88.2151 255.179C88.2398 255.853 88.5314 256.49 89.0257 256.95L97.7966 265.721C89.9028 274.053 86.4383 279.272 87.2277 281.64C88.017 284.008 90.8676 282.956 91.6131 281.903C94.6829 278.132 98.1474 273.834 101.875 269.843C105.57 273.878 109.67 277.522 114.11 280.719C114.569 280.838 115.05 280.831 115.505 280.699C115.959 280.567 116.37 280.315 116.693 279.969C117.016 279.623 117.24 279.197 117.341 278.735C117.443 278.272 117.417 277.791 117.268 277.342C113.967 273.014 110.235 269.032 106.129 265.458ZM108.453 77.4537C101.448 83.58 95.7246 91.0323 91.6131 99.3809C88.3098 95.4263 84.5064 91.9178 80.2987 88.9436C77.7113 87.1456 74.3783 90.5662 76.9219 92.4958C81.9243 96.9171 86.5997 101.695 90.9114 106.792C92.0516 107.976 93.148 107.362 94.1128 106.091C98.8886 96.7862 104.779 88.0976 111.655 80.2166C113.76 77.8923 110.734 75.3049 108.453 77.4537ZM107.05 363.779C109.33 362.2 118.013 345.448 123.057 339.747C125.03 337.554 121.61 334.528 119.373 336.853C113.369 343.038 108.222 349.999 104.068 357.552L93.8497 348.781C91.6131 346.895 88.631 350.272 90.9553 352.509C93.2796 354.745 103.278 367.024 107.05 363.779ZM140.511 420.001C138.844 416.711 78.8515 420.001 78.2814 420.001C78.1506 420.017 78.0258 420.065 77.9186 420.142C77.8113 420.218 77.725 420.321 77.6674 420.439C75.6501 423.684 77.6674 476.441 79.1146 481.353C80.8249 487.317 138.976 482.362 141.87 482.625C141.958 482.644 142.048 482.644 142.135 482.625C142.222 482.605 142.304 482.567 142.375 482.513C142.446 482.458 142.505 482.389 142.546 482.31C142.588 482.231 142.611 482.144 142.616 482.055C143.537 475.345 140.73 420.439 140.511 420.001ZM81.088 423.202C98.6298 423.947 119.373 422.851 137.178 422.807C137.441 430.131 139.02 473.108 139.239 478.897C119.768 479.774 103.41 479.467 82.6668 478.897C82.8861 471.573 81.3512 429.868 81.088 423.333V423.202Z" fill="#252525"/>
<path d="M102.27 451.619C105.383 451.619 121.303 452.716 122.574 452.014C122.91 451.823 123.196 451.558 123.412 451.238C123.627 450.919 123.766 450.553 123.817 450.171C123.868 449.789 123.83 449.4 123.706 449.035C123.581 448.67 123.374 448.339 123.101 448.067C120.776 445.611 106.085 446.138 103.629 446.62C100.296 447.234 99.6824 448.506 99.7701 449.47C99.887 450.056 100.197 450.586 100.65 450.976C101.103 451.365 101.673 451.592 102.27 451.619ZM108.19 322.907C93.8059 323.17 78.6761 323.696 76.1764 323.871C75.2116 323.871 74.203 324.705 74.0714 333.826C74.0714 344.746 75.9572 379.347 80.3426 379.654C89.1135 380.312 134.459 380.487 140.292 380.049C141.213 380.049 141.958 380.049 140.292 357.245C139.371 345.492 137.309 324.135 137.309 324.135C137.134 323.257 137.046 322.468 108.19 322.907ZM134.02 326.766C135.073 343.124 135.643 359.876 137.397 376.321H81.6144C79.9041 360.49 78.7638 344.176 77.5359 327.424L134.02 326.766ZM86.5261 298.217C104.331 298.217 134.108 295.805 134.371 295.673C137.178 294.226 134.371 254.625 133.45 237.698C133.45 234.672 117.97 234.628 105.12 235.11C99.507 235.11 71.6156 236.601 71.7033 240.592C73.1944 299.313 72.8435 296.462 73.9399 297.076C78.0438 298.147 82.2965 298.532 86.5261 298.217ZM77.2728 293.831C76.2641 276.553 75.9133 258.221 75.2116 241.206C93.4221 239.588 111.708 238.974 129.986 239.364C129.986 245.372 131.17 285.323 131.915 291.989C125.425 292.428 84.0702 292.735 77.4044 293.875L77.2728 293.831Z" fill="#252525"/>
<path d="M406.663 363.121C395.173 50.5709 399.997 53.2022 397.892 51.3603C394.91 48.5536 371.887 50.3955 366.229 50.7025L363.861 2.76959C363.974 2.4805 364.016 2.16843 363.982 1.85986C363.949 1.55129 363.842 1.25533 363.67 0.99709C363.497 0.738847 363.265 0.525947 362.993 0.376447C362.721 0.226948 362.417 0.145262 362.107 0.138325C270.013 -1.00189 175.244 5.09388 80.211 11.5405C54.6 13.3385 27.9804 14.9173 1.93088 17.6801C1.68732 17.641 1.43811 17.6564 1.20123 17.7252C0.964355 17.7941 0.745719 17.9147 0.561112 18.0784C0.376504 18.242 0.230526 18.4446 0.133715 18.6715C0.0369038 18.8984 -0.00832667 19.1439 0.00128962 19.3904C4.82527 136.482 18.8587 325.757 43.1102 535.338C43.3733 537.75 63.3709 535.645 81.3512 534.461C81.5865 539.62 82.5158 544.723 84.114 549.634C86.7453 552.967 412.057 532.794 411.663 518.936C410.259 466.881 408.374 414.168 406.663 363.121ZM382.017 499.859C266.68 517.401 162.964 522.313 47.1448 532.312C24.2089 333.607 14.7802 197.308 3.29037 20.7499C38.9002 18.6449 170.595 6.54107 360.835 4.04137C365.572 131.526 383.201 485.826 381.885 499.859H382.017Z" fill="#252525"/>
</svg>
