<svg width="773" height="801" viewBox="0 0 773 801" fill="none" xmlns="http://www.w3.org/2000/svg">
<path d="M262.931 611.758C269.96 609.268 277.162 607.295 284.479 605.854L285.365 609.101C285.464 609.483 285.697 609.818 286.023 610.042C286.348 610.267 286.743 610.367 287.136 610.324L316.107 606.95C324.077 588.775 338.709 561.238 338.92 560.817C338.709 553.943 338.92 548.166 338.92 541.587C322.348 547.744 291.69 559.425 275.666 566.889C275.304 567.123 275.024 567.464 274.865 567.865C274.706 568.265 274.676 568.706 274.78 569.124C274.78 569.124 275.076 570.178 275.455 571.696C267.612 571.696 244.123 570.558 238.472 575.913C237.594 577.138 237.162 578.626 237.25 580.13C236.912 585.95 239.822 631.156 244.461 644.439C246.864 651.397 251.925 650.638 255.382 643.975C259.385 633.941 261.954 623.394 263.015 612.643C263.015 612.095 262.889 612.137 262.931 611.758ZM258.081 574.016C263.226 573.594 264.828 573.678 275.877 573.341C277.859 580.847 281.949 596.281 284.058 604.167C276.618 605.319 269.274 607.025 262.087 609.269C259.848 597.639 258.509 585.852 258.081 574.016Z" fill="#5E95DD"/>
<path d="M651.06 204.949C652.114 203.473 650.765 201.575 649.626 200.099C652.851 196.782 656.428 193.826 660.295 191.286C666.819 188.034 672.784 183.764 677.964 178.635C680.115 176.4 684.163 171.803 682.645 169.104C681.127 166.406 678.428 166.237 674.759 167.797C676.348 166.128 677.646 164.204 678.596 162.104C679.777 158.815 676.994 156.158 670.964 158.604C673.157 155.104 673.663 151.435 669.952 149.664C666.958 148.23 662.572 151.646 660.042 153.881C655.073 158.222 650.41 162.9 646.084 167.881C643.427 162.315 639.21 155.905 633.939 157.929C628.668 159.954 632.758 169.02 635.457 173.954L625.884 180.575C624.438 179.794 622.803 179.429 621.161 179.52C610.282 181.376 560.311 219.413 555.25 219.413C551.371 219.413 495.96 192.846 448.055 185.171C447.963 184.884 447.791 184.628 447.56 184.434C447.329 184.24 447.047 184.116 446.748 184.075C438.393 182.649 429.921 182.013 421.446 182.177C421.19 182.194 420.94 182.267 420.714 182.391C420.488 182.515 420.292 182.687 420.139 182.894H416.597C415.754 179.478 412.633 171.592 411.537 168.556C414.404 166.068 418.368 164.803 420.434 160.797C424.23 153.375 424.061 140.471 423.007 132.206C427.772 128.579 427.898 122.76 426.802 116.814C426.38 114.41 425.073 108.971 423.049 107.621C421.91 106.862 419.507 107.621 417.44 108.38C415.374 103.573 415.374 105.766 416.217 103.826C416.609 102.932 416.838 101.975 416.892 101.001C419.127 101.675 423.766 97.2053 422.163 91.3016C421.324 89.1882 420.293 87.1556 419.085 85.2292C419.675 83.7954 420.94 82.0664 416.977 76.7952C415.269 74.9537 413.053 73.6619 410.609 73.0843H408.669C407.27 71.0529 405.216 69.564 402.85 68.8674C399.278 67.9567 395.492 68.4868 392.307 70.3433C391.464 70.9758 390.789 71.8192 389.946 72.4096C388.039 71.2518 385.851 70.6395 383.62 70.6395C381.39 70.6395 379.202 71.2518 377.295 72.4096C376.179 72.8476 375.163 73.5067 374.307 74.3473C373.452 75.1879 372.776 76.1927 372.319 77.3013C370.253 76.5884 368.061 76.3139 365.882 76.4954C363.704 76.677 361.588 77.3105 359.668 78.3555C352.383 82.3057 346.934 88.9506 344.487 96.868C344.419 98.0618 344.419 99.2585 344.487 100.452H344.023C337.698 99.5246 329.643 114.537 336.095 126.218C336.854 127.61 337.824 128.917 338.752 130.435C341.451 134.652 340.397 135.917 346.427 141.062C348.198 142.58 348.493 142.453 349.59 143.381C350.686 144.309 350.264 143.845 350.897 146.206C351.242 147.597 351.859 148.906 352.713 150.057C353.567 151.208 354.641 152.178 355.873 152.911C356.321 157.036 358.08 160.908 360.891 163.96C361.781 164.956 362.82 165.809 363.969 166.49C364.28 166.665 364.626 166.766 364.981 166.785C366.247 174.629 367.807 184.834 368.482 189.177L364.728 191.201C359.818 193.177 355.042 195.473 350.433 198.075C350.071 198.325 349.816 198.701 349.716 199.129C345.246 201.491 341.029 203.726 338.625 205.159C305.143 225.021 210.05 355.958 209.081 361.946C208.974 362.289 208.974 362.657 209.081 363C210.444 365.175 212.104 367.148 214.014 368.862C213.426 369.935 212.719 370.94 211.906 371.856C203.472 377.38 190.821 385.603 184.032 392.94C183.556 393.365 183.198 393.906 182.995 394.511C182.792 395.116 182.75 395.763 182.874 396.389C182.997 397.015 183.282 397.598 183.699 398.08C184.117 398.562 184.653 398.927 185.255 399.139C186.52 399.561 186.731 399.434 194.954 394.922C192.694 396.905 190.846 399.312 189.514 402.007C188.966 404.326 191.074 405.676 193.731 405.254C195.226 404.862 196.649 404.236 197.948 403.398C197.187 404.573 196.783 405.942 196.783 407.341C196.783 408.74 197.187 410.11 197.948 411.284C202.165 416.597 213.213 399.856 219.033 395.724C221.394 398.718 224.599 405.718 229.701 403.862C234.129 402.218 229.28 392.477 229.701 389.651C231.417 388.004 233.249 386.482 235.184 385.097C238.437 387.509 242.156 389.218 246.105 390.115C253.063 390.115 325.679 316.824 331.204 310.963C329.222 329.602 319.227 409.597 321.336 425.158C322.306 432.2 339.216 433.212 346.343 433.592C344.192 484.195 342.758 560.86 342.379 561.661C331.204 585.74 328.167 592.318 324.414 599.613C317.583 612.686 288.823 660.928 285.576 671.892C285.112 673.621 285.07 674.296 286.883 677.501C281.449 683.214 276.406 689.286 271.787 695.676C269.467 699.893 279.419 739.195 286.462 753.111C288.064 756.231 290.679 761.038 294.179 760.912C304.721 760.532 304.679 722.664 304.384 712.08C304.382 711.753 304.262 711.439 304.046 711.194C305.957 708.342 308.042 705.61 310.288 703.013C311.628 703.936 313.038 704.754 314.504 705.459C315.938 706.092 317.541 704.995 318.721 704.025C332.764 692.977 408.5 598.601 424.736 554.07C432.115 533.745 441.941 505.66 444.724 485.756C446.426 473.171 446.581 460.425 445.188 447.803C445.188 447.624 445.259 447.452 445.386 447.326C445.512 447.199 445.684 447.128 445.863 447.128C446.042 447.128 446.213 447.199 446.34 447.326C446.466 447.452 446.537 447.624 446.537 447.803C448.649 460.497 449.06 473.416 447.76 486.219C444.64 513.84 422.838 571.402 411.199 592.571C421.236 590.716 441.646 586.667 451.513 583.715C484.406 573.721 514.768 543.907 517.424 510.425C518.284 494.651 518.284 478.842 517.424 463.068C517.14 441.293 514.309 419.625 508.99 398.507C517.93 393.657 526.111 387.964 528.768 382.735C534.461 371.56 519.406 307.252 516.117 289.203C534.124 291.185 564.781 294.77 579.076 283.595C595.438 270.438 630.776 233.413 651.06 204.949ZM302.107 709.76C294.516 705.164 283.889 694.242 282.287 685.681C284.016 683.489 285.829 681.464 287.516 679.187C293.231 687.908 300.356 695.618 308.601 702.001C306.285 704.457 304.116 707.048 302.107 709.76ZM637.355 175.135C637.573 174.995 637.729 174.778 637.792 174.527C637.855 174.276 637.819 174.011 637.692 173.785C636.216 171.044 631.788 161.387 634.867 160.291C636.638 159.616 638.198 160.713 639.505 162.189C641.501 164.721 643.055 167.572 644.102 170.623C644.18 170.87 644.324 171.093 644.519 171.265C644.713 171.437 644.951 171.554 645.207 171.601C645.462 171.649 645.726 171.626 645.969 171.535C646.213 171.445 646.428 171.29 646.59 171.086C650.807 166.406 660.674 155.737 666.241 152.869C670.458 150.676 671.47 154.725 661.138 164.171C658.765 165.98 656.485 167.908 654.307 169.948C654.187 170.113 654.122 170.313 654.122 170.517C654.122 170.722 654.187 170.921 654.307 171.086C654.307 172.183 655.192 173.406 656.71 172.267C660.376 169.049 664.25 166.077 668.307 163.369C670.378 161.898 672.785 160.97 675.307 160.67C674.042 164.55 662.277 175.092 661.265 176.273C660.944 176.561 660.749 176.963 660.721 177.393C660.694 177.823 660.837 178.247 661.118 178.573C661.4 178.899 661.799 179.102 662.228 179.137C662.658 179.172 663.084 179.037 663.415 178.761C668.096 175.725 676.277 168.641 679.103 169.695C681.928 170.749 673.536 178.593 671.428 180.448C659.325 190.948 662.445 184.201 648.445 198.454C642.351 191.779 635.353 185.988 627.656 181.249L637.355 175.135ZM454.128 376.832C453.411 371.012 452.525 364.729 451.429 358.193L453.242 355.789C461.676 344.951 464.206 327.704 463.405 314.168C467.917 333.945 471.502 353.385 474.243 372.699L454.128 376.832ZM391.422 232.443C380.331 224.009 362.493 209.461 352.12 199.509L368.988 191.075C384.476 205.542 397.735 222.226 408.332 240.582C424.534 270.346 436.553 302.203 444.049 335.252L383.916 250.196L391.759 233.919C391.863 233.668 391.886 233.392 391.826 233.127C391.765 232.863 391.624 232.624 391.422 232.443ZM419.928 184.623C420.181 185.087 423.091 191.286 427.519 202.123C427.519 202.587 426.718 213.129 426.338 216.84C420.956 214.707 415.88 211.871 411.241 208.406C412.169 204.738 416.344 188.081 416.639 184.328L419.928 184.623ZM404.958 229.913C405.253 229.154 405.549 228.142 405.886 226.961L408.711 228.437C410.314 229.491 409.681 226.286 411.115 235.564C411.115 237.124 411.537 238.853 411.621 240.75C409.681 237.25 407.277 233.497 405 229.913H404.958ZM402.597 226.371C394.63 215.071 385.561 204.589 375.524 195.081L407.278 208.87C406.055 211.78 404.283 220.678 402.639 226.371H402.597ZM435.025 251.082C430.808 239.57 427.561 226.708 425.959 223.334C426.054 222.282 426.054 221.224 425.959 220.172C426.569 220.399 427.207 220.541 427.856 220.593C428.263 220.598 428.658 220.455 428.968 220.192C429.278 219.928 429.482 219.562 429.543 219.16C429.88 217.768 430.429 210.726 430.513 209.165C442.78 240.137 453.021 271.873 461.17 304.173C437.344 253.486 441.013 268.161 435.067 251.082H435.025ZM469.899 331.584C460.285 285.492 443.375 228.015 424.145 185.424C431.207 185.428 438.257 185.992 445.23 187.111C448.815 219.16 445.82 218.063 448.224 219.328C450.628 220.593 465.092 226.413 467.243 227.298C467.032 230.545 470.068 323.403 469.941 331.584H469.899ZM421.362 110.32C423.56 115.117 424.336 120.445 423.597 125.67C423.254 127 422.548 128.208 421.559 129.161C420.57 130.113 419.335 130.773 417.993 131.066C416.652 131.359 415.255 131.273 413.958 130.819C412.662 130.366 411.517 129.561 410.651 128.495C408.639 124.257 407.125 119.799 406.139 115.212C407.278 113.736 419.422 110.784 421.362 110.32ZM363.337 152.49C361.796 151.788 360.22 151.169 358.614 150.634C357.536 150.191 356.574 149.507 355.801 148.635C355.029 147.762 354.466 146.724 354.157 145.601C353.847 144.477 353.799 143.298 354.016 142.153C354.233 141.008 354.71 139.928 355.409 138.995C358.066 136.76 360.469 136.887 362.662 140.218C364.054 142.791 364.012 143.001 364.644 143.254C364.826 143.334 365.022 143.375 365.22 143.373C365.419 143.37 365.614 143.326 365.794 143.242C365.973 143.158 366.133 143.037 366.262 142.886C366.391 142.736 366.486 142.559 366.542 142.369C367.167 139.729 367.267 136.993 366.837 134.315C366.331 131.405 366.247 118.501 366.331 118.079C367.563 118.729 368.946 119.034 370.337 118.965C377.97 118.67 379.488 114.748 382.524 111.543C386.024 111.88 386.741 113.567 390.705 111.543C392.561 110.487 394.264 109.182 395.765 107.663C396.977 108.16 398.148 108.752 399.265 109.434C401.793 110.65 404.643 111.023 407.398 110.499C410.153 109.976 412.668 108.583 414.573 106.525C415.037 107.41 415.458 108.296 415.838 109.224C411.963 110.426 408.315 112.264 405.043 114.664C404.326 115.549 405.38 120.356 405.633 121.495C402.1 121.939 398.682 123.041 395.554 124.742C394.922 122.549 393.53 118.459 391.337 117.32C390.678 117.118 389.973 117.118 389.313 117.32C385.518 117.911 371.897 122.001 370.253 124.236C368.819 125.796 372.909 137.857 374.174 139.839C379.024 147.345 393.235 145.152 395.892 136.381C396.55 133.437 396.55 130.385 395.892 127.441C397.115 127.441 400.783 126.134 401.205 126.007C404.115 132.543 404.958 132.923 408.332 139.965C407.868 140.345 407.109 140.977 406.476 141.399C403.482 143.381 402.85 143.044 403.018 143.887C403.067 144.054 403.176 144.198 403.323 144.291C403.471 144.384 403.647 144.421 403.82 144.393C405.589 144.14 407.319 143.658 408.964 142.959C409.949 142.592 410.761 141.87 411.241 140.935C412.422 138.278 405.886 128.284 403.314 125.29C403.82 125.29 405 124.447 405.886 123.983C407.067 128.706 407.868 132.417 412.422 134.272C413.738 134.769 415.141 134.996 416.547 134.938C417.953 134.88 419.332 134.539 420.603 133.935C421.278 141.357 421.151 153.417 417.609 159.996C415.796 163.412 411.326 164.719 408.458 167.544C407.615 168.345 408.163 169.484 408.458 170.707C413.139 183.737 413.223 183.695 412.97 185.382C411.729 192.383 409.996 199.288 407.784 206.045C406.729 205.581 394.88 199.298 371.686 190.274C370.97 185.508 367.132 160.08 365.909 155.399C365.994 153.755 365.783 153.375 363.337 152.279V152.49ZM392.856 135.284C391.506 139.881 385.138 141.863 380.584 140.598C376.03 139.333 375.735 137.013 373.584 131.531C372.576 129.437 371.88 127.207 371.518 124.911C372.909 123.393 388.133 120.272 390.03 119.977C392.692 124.53 393.69 129.866 392.856 135.074V135.284ZM227.846 388.47C226.244 390.031 228.394 395.133 228.732 399.561C228.732 399.941 228.732 401.585 228.479 401.712C226.159 402.471 224.009 398.971 222.701 396.862C221.394 394.754 220.087 391.886 218.021 392.645C213.804 394.627 204.02 407.615 200.183 408.965C198.243 405.254 209.334 394.669 209.713 394.079C209.876 393.808 209.961 393.497 209.96 393.181C209.958 392.865 209.87 392.555 209.705 392.286C209.54 392.016 209.304 391.797 209.023 391.652C208.741 391.507 208.426 391.443 208.111 391.464C207.352 391.464 206.846 392.139 205.665 393.193C202.073 396.699 197.963 399.629 193.478 401.88C197.544 397.215 201.896 392.807 206.508 388.681C206.736 388.447 206.896 388.156 206.972 387.838C206.972 387.838 206.087 385.603 204.358 386.488C201.912 387.838 190.02 394.712 186.267 396.483C185.761 396.145 186.056 395.639 186.267 395.133C192.213 387.838 205.285 378.982 213.298 373.374C214.238 372.405 215.021 371.295 215.617 370.084C221.166 375.247 227.085 379.997 233.328 384.296C231.405 385.557 229.573 386.952 227.846 388.47ZM325.975 426.803C325.047 426.212 324.372 425.664 324.246 424.905C321.926 407.7 334.83 310.204 334.619 306.366C334.619 306.141 334.574 305.918 334.487 305.711C334.4 305.503 334.272 305.316 334.111 305.158C333.949 305.001 333.758 304.878 333.549 304.796C333.339 304.713 333.115 304.674 332.89 304.68C330.74 304.68 334.535 304.68 280.811 356.126C277.269 359.458 250.196 385.35 245.684 387.079C239.485 386.615 216.165 368.018 212.37 362.157C219.707 347.313 308.685 225.19 339.469 206.509C341.83 205.075 345.879 202.84 350.306 200.479C351.838 201.923 353.488 203.235 355.24 204.4C365.024 213.678 378.644 225.232 388.976 233.919L380.922 249.901C380.799 250.113 380.735 250.353 380.735 250.597C380.735 250.841 380.799 251.081 380.922 251.293C446.327 345.12 445.357 344.066 445.778 344.066C449.971 365.747 452.578 387.706 453.58 409.766C453.58 415.712 453.58 415.206 453.833 414.784C454.086 414.363 453.833 415.079 453.833 415.079C443.628 426.212 342.632 436.586 325.975 426.803ZM559.088 287.095C539.985 289.751 518.394 285.788 514.22 285.619C511.9 274.377 507.276 263.738 500.641 254.371C500.54 254.235 500.39 254.141 500.223 254.11C500.056 254.079 499.884 254.112 499.74 254.202C499.596 254.293 499.491 254.435 499.447 254.599C499.403 254.763 499.423 254.938 499.502 255.088C501.948 260.064 510.129 281.528 512.153 286.757C511.521 288.782 531.214 370.211 525.647 381.175C520.671 391.085 491.701 403.567 481.243 407.152C479.175 383.675 475.796 360.333 471.122 337.234C472.556 325.09 470.701 252.895 470.152 226.202C470.136 225.892 470.033 225.593 469.854 225.339C469.674 225.085 469.427 224.887 469.14 224.768L450.206 216.798C450.12 206.777 449.487 196.768 448.309 186.816C495.581 194.997 550.654 222.027 555.25 222.069C561.913 222.069 611.42 184.117 621.668 182.599C626.222 181.882 645.789 198.96 648.066 203.683C628.077 231.6 592.95 268.287 576.673 280.98C571.429 284.486 565.375 286.591 559.088 287.095Z" fill="#5E95DD"/>
<path d="M388.511 126.851C388.459 126.574 388.352 126.31 388.198 126.074C388.043 125.839 387.844 125.636 387.611 125.477C387.378 125.318 387.116 125.207 386.84 125.15C386.564 125.093 386.279 125.09 386.002 125.143C385.725 125.195 385.462 125.302 385.226 125.457C384.99 125.611 384.787 125.811 384.629 126.044C384.47 126.277 384.359 126.539 384.302 126.814C384.244 127.09 384.242 127.375 384.294 127.652C385.138 131.869 385.307 132.839 387.162 132.839C387.513 132.84 387.858 132.754 388.167 132.588C388.476 132.422 388.739 132.181 388.931 131.888C389.124 131.595 389.241 131.259 389.27 130.909C389.3 130.56 389.242 130.208 389.102 129.887C388.975 129.212 388.596 127.23 388.511 126.851ZM401.415 154.767C404.156 155.568 406.771 154.261 406.687 153.586C406.602 152.911 406.687 153.249 402.976 151.857C400.488 150.929 397.747 147.64 396.777 148.146C395.807 148.652 397.283 151.351 397.62 151.857C398.522 153.226 399.859 154.251 401.415 154.767ZM478.543 114.706C473.019 137.857 468.971 157.508 468.296 161.43C467.848 163.136 467.762 164.917 468.043 166.659C470.278 171.424 499.164 180.828 502.833 178.972C506.502 177.117 516.032 155.652 527.123 133.513C533.917 133.73 540.715 133.236 547.406 132.037C554.452 130.745 561.308 128.578 567.816 125.586C582.07 119.007 597.672 90.8378 599.781 76.6688C601.362 61.2856 598.104 45.7923 590.461 32.3486C555.081 -29.0081 451.302 4.0107 459.736 72.1567C462.144 87.7498 468.633 102.429 478.543 114.706ZM504.267 164.93C504.267 165.604 503.508 165.52 500.05 164.93C492.977 164.041 486.129 161.854 479.851 158.478C476.899 156.875 476.098 156.538 476.393 155.821C476.688 155.104 477.321 155.357 481.875 156.622C482.297 156.622 495.369 160.839 499.122 162.147C503.972 164.339 504.267 164.339 504.267 164.93ZM503.508 96.3199C508.011 96.5534 512.498 95.624 516.538 93.621C520.293 95.4401 524.355 96.5413 528.514 96.8681C521.43 110.067 507.05 136.971 502.411 151.309L484.532 146.375C488.748 136.001 498.068 111.712 503.423 96.3199H503.508ZM502.032 92.8198C498.884 92.3442 495.979 90.8492 493.763 88.5641C491.546 86.2789 490.14 83.3298 489.761 80.1689C488.58 71.735 493.977 62.289 502.116 64.524C507.219 65.9156 507.851 69.9639 506.966 75.0664C506.207 78.7773 503.466 88.0968 501.948 92.6511L502.032 92.8198ZM513.502 82.6991C513.952 79.9397 514.988 77.3085 516.538 74.9821C517.276 73.7138 518.355 72.678 519.652 71.9922C520.949 71.3064 522.412 70.9981 523.876 71.1025C526.996 72.0302 528.346 77.9339 525.773 81.6448C523.301 84.9256 520.224 87.7026 516.707 89.8257C515.497 89.1156 514.533 88.052 513.945 86.7781C513.357 85.5041 513.173 84.0807 513.418 82.6991H513.502ZM474.748 29.1016C493.64 6.37219 529.189 -2.65209 554.87 6.70955C568.821 11.4985 580.556 21.1951 587.889 33.9933C595.16 46.7856 598.269 61.5235 596.787 76.1628C594.847 89.2775 579.919 116.519 566.804 122.549C554.814 128.019 541.731 130.673 528.557 130.309C527.123 130.309 525.605 130.309 525.056 131.321C522.568 136.381 518.014 146.164 513.544 155.357C510.457 153.867 507.256 152.626 503.972 151.646C508.863 137.646 524.297 110.151 531.635 96.8259C537.992 97.3706 544.383 96.2667 550.19 93.621C551.758 92.7952 553.059 91.5391 553.939 90.0001C554.819 88.461 555.242 86.7029 555.158 84.9321C555.073 83.1612 554.486 81.4511 553.464 80.0024C552.442 78.5537 551.028 77.4265 549.388 76.7532C542.852 73.5483 536.99 81.2232 533.575 87.6751C532.647 89.3619 531.593 91.3438 530.412 93.5788C527.001 93.3547 523.638 92.6593 520.418 91.5125C523.625 89.2587 526.469 86.5284 528.852 83.416C530.187 81.3997 530.863 79.0188 530.788 76.6018C530.712 74.1847 529.888 71.8506 528.43 69.9217C527.284 68.5913 525.693 67.7244 523.954 67.4838C522.215 67.2431 520.448 67.6451 518.984 68.6145C516.031 70.4291 513.664 73.0576 512.168 76.1843C510.672 79.3111 510.11 82.8032 510.55 86.2413C511.009 88.1821 512.054 89.9343 513.544 91.2595C510.778 92.4051 507.809 92.9789 504.815 92.9463C506.502 87.9703 509.243 78.9882 509.96 75.3194C510.409 73.2278 510.509 71.0761 510.255 68.9518C509.929 67.1282 509.082 65.4377 507.818 64.0836C506.554 62.7295 504.925 61.7696 503.128 61.3191C492.881 58.4094 485.333 69.753 486.809 80.3376C487.226 84.1307 488.854 87.6885 491.451 90.4837C494.049 93.2789 497.478 95.1628 501.231 95.856C495.833 111.037 487.399 135.538 483.182 145.996L473.905 143.592C479.851 113.736 480.568 114.453 479.724 114.073C470.143 101.857 464.012 87.2946 461.971 71.9037C460.977 64.2721 461.601 56.5167 463.802 49.1422C466.004 41.7677 469.733 34.9394 474.748 29.1016ZM533.28 93.8319C536.231 88.4763 542.135 76.7532 547.87 79.6207C549.017 80.0829 550.016 80.8495 550.759 81.838C551.503 82.8264 551.962 83.999 552.087 85.2293C552.003 92.6511 540.448 93.9584 533.111 93.8319H533.28ZM694.705 112.429C699.786 109.44 705.788 108.42 711.572 109.561C717.926 109.675 723.995 112.215 728.535 116.661C733.075 121.107 735.742 127.122 735.988 133.471C732.168 131.254 727.701 130.421 723.338 131.11C712.753 132.037 698.922 137.773 700.777 147.978C702.295 156.411 713.428 155.273 721.862 152.996C730.296 150.719 737.001 146.586 738.73 138.447C748.977 145.911 751.38 158.984 751.802 171.761C751.802 171.94 751.873 172.112 752 172.238C752.126 172.365 752.298 172.436 752.477 172.436C752.656 172.436 752.827 172.365 752.954 172.238C753.081 172.112 753.152 171.94 753.152 171.761C753.447 157.466 750.874 143.465 739.193 135.327C739.314 131.665 738.69 128.018 737.359 124.605C736.029 121.192 734.019 118.084 731.453 115.47C728.886 112.857 725.816 110.791 722.428 109.398C719.039 108.006 715.404 107.315 711.741 107.368C705.887 106.513 699.919 107.737 694.873 110.826C693.313 111.585 694.03 112.724 694.705 112.429ZM733.163 142.664C728.398 148.905 714.904 152.152 708.663 151.098C706.343 150.719 704.446 149.749 703.94 147.345C702.422 138.911 716.97 134.315 725.657 134.019C729.194 133.748 732.722 134.653 735.693 136.592C735.374 138.797 734.504 140.885 733.163 142.664ZM675.391 63.1324C679.903 57.566 676.867 47.867 664.258 47.8249C659.366 47.8249 657.005 52.8009 657.342 57.566C658.101 68.9096 670.879 68.5723 675.391 63.1324ZM660.294 57.3552C660.294 54.572 661.601 50.9454 664.511 50.9876C671.3 50.9876 674.421 54.1503 674.421 57.6504C674.252 65.6204 659.746 69.753 660.294 57.3552ZM658.565 535.431C621.498 520.63 604.293 592.276 574.015 653.844C573.824 656.432 573.909 659.033 574.268 661.603C574.268 668.055 574.985 710.772 578.738 715.622C579.75 717.562 584.01 715.622 585.991 714.399C602.825 703.978 618.688 692.067 633.39 678.808C633.515 678.665 633.61 678.497 633.668 678.316C633.726 678.134 633.746 677.943 633.727 677.754C641.571 666.579 670.963 608.385 678.09 579.203C683.066 558.54 678.132 543.148 658.565 535.431ZM671.806 588.987C651.962 586.444 632.776 580.178 615.257 570.517C625.125 551.835 637.312 530.54 657.427 538.552C679.819 547.45 679.355 565.878 671.806 588.86V588.987ZM601.636 698.628C600.341 697.542 598.927 696.608 597.419 695.844C591.721 692.947 585.137 692.315 578.991 694.073C578.57 689.055 576.166 656.416 576.166 656.121C607.751 667.675 598.01 662.657 629.299 678.218C626.01 681.338 613.655 689.983 601.636 698.543V698.628ZM623.396 576.589C627.509 578.836 631.731 580.877 636.047 582.704C626.381 597.886 617.84 613.756 610.492 630.186C603.407 644.988 603.66 644.904 596.449 661.055C592.233 659.705 588.016 658.44 583.799 657.175C588.353 648.108 620.739 581.818 623.396 576.505V576.589ZM598.094 661.476C611.799 636.891 625.757 606.318 637.733 583.252C641.95 585.023 646.167 586.457 650.384 587.722C648.149 591.939 641.613 603.156 639.884 606.403C638.155 609.65 620.823 643.807 619.601 646.422C617.661 650.639 612.347 662.404 610.703 666.157C606.402 664.259 602.269 662.826 597.925 661.392L598.094 661.476ZM612.221 666.705C614.793 662.024 625.378 642.373 626.685 639.843C628.667 635.921 650.764 590.758 651.987 588.143C655.866 589.24 659.957 590.168 662.571 590.674C654.854 611.758 632.631 652.368 624.619 672.398C617.323 668.982 615.679 668.139 612.052 666.621L612.221 666.705ZM614.793 571.739L622.342 575.956C607.13 601.861 593.88 628.869 582.702 656.753L576.377 654.813C600.877 602.607 602.016 595.776 614.625 571.655L614.793 571.739ZM632.167 676.067L625.799 673.031C632.673 659.536 654.18 624.915 664.005 590.969C666.367 591.39 668.686 591.77 670.921 592.065C660.084 620.98 647.073 649.033 631.998 675.983L632.167 676.067ZM500.05 703.435C501.731 702.043 502.932 700.159 503.484 698.048C504.037 695.937 503.912 693.706 503.128 691.67C502.771 688.731 501.423 686.003 499.308 683.932C497.192 681.862 494.435 680.573 491.49 680.279C488.545 679.984 485.587 680.701 483.104 682.312C480.62 683.922 478.759 686.33 477.827 689.139C472.429 685.639 466.567 681.928 460.959 678.386C465.176 672.778 477.574 675.266 478.839 679.862C478.867 680.041 478.964 680.202 479.111 680.308C479.257 680.415 479.44 680.459 479.619 680.431C479.798 680.403 479.958 680.306 480.065 680.159C480.172 680.013 480.216 679.83 480.188 679.651C479.556 672.314 464.29 668.013 458.133 676.657C452.693 673.326 445.946 669.278 440.296 666.199C445.145 661.982 455.983 664.344 457.163 668.729C457.219 668.879 457.326 669.005 457.465 669.083C457.605 669.162 457.767 669.188 457.924 669.158C458.082 669.127 458.223 669.042 458.323 668.917C458.423 668.793 458.475 668.636 458.471 668.476C457.923 661.645 443.796 657.048 437.386 664.555C434.7 663.05 431.876 661.807 428.952 660.844C428.418 660.622 427.831 660.56 427.262 660.665C426.693 660.769 426.167 661.037 425.747 661.434C415.078 674.717 379.108 709.212 362.493 713.218C362.075 713.281 361.681 713.453 361.351 713.716C361.021 713.98 360.766 714.326 360.612 714.719C360.458 715.113 360.411 715.54 360.474 715.957C360.538 716.375 360.711 716.768 360.975 717.098C364.623 720.801 368.801 723.942 373.373 726.417C369.156 730.634 365.866 734.43 363.421 737.171C362.155 738.52 361.481 764.328 362.577 770.021C362.74 770.578 363.1 771.057 363.589 771.37C368.903 774.997 437.344 804.6 444.344 800.636C449.025 797.979 504.899 739.827 505.785 738.056C507.134 735.273 506.671 716.718 506.586 709.297C506.249 707.062 502.074 704.658 500.05 703.435ZM365.107 759.141V749.737C382.608 758.171 422.669 775.376 437.85 780.184C441.729 781.449 442.067 781.28 444.091 780.184C455.688 772.762 496.634 726.628 504.14 719.586V728.484C481.369 751.297 442.699 791.274 441.982 788.997C437.808 788.744 368.734 760.828 365.107 759.141ZM498.996 689.224C500.512 691.778 501.326 694.688 501.357 697.658C501.342 698.603 501.111 699.532 500.679 700.373C500.248 701.214 499.628 701.944 498.869 702.507C495.327 700.146 488.622 695.76 480.694 690.615C485.038 682.055 494.694 681.928 498.827 689.224H498.996ZM364.053 716.212C382.017 710.899 416.133 678.007 427.603 663.753C430.363 664.522 433.024 665.612 435.53 667C431.314 674.844 435.826 683.447 437.428 682.224C438.314 681.549 436.711 681.296 436.458 677.163C436.351 674.144 437.034 671.15 438.44 668.476C444.26 671.513 451.091 675.477 456.868 678.808C453.326 686.694 457.585 694.495 459.061 693.356C460.537 692.218 458.386 692.471 458.133 688.338C458.03 685.628 458.55 682.931 459.651 680.453C465.597 683.953 471.67 687.579 477.236 690.995C476.378 693.096 476.038 695.373 476.243 697.633C476.449 699.893 477.194 702.071 478.417 703.983C478.472 704.055 478.541 704.115 478.62 704.161C478.699 704.206 478.786 704.236 478.876 704.247C478.966 704.259 479.057 704.253 479.145 704.229C479.233 704.206 479.315 704.165 479.387 704.11C479.459 704.054 479.519 703.985 479.565 703.907C479.61 703.828 479.639 703.741 479.651 703.651C479.663 703.561 479.657 703.469 479.633 703.382C479.609 703.294 479.569 703.212 479.513 703.14C478.756 701.464 478.381 699.641 478.418 697.803C478.454 695.964 478.901 694.157 479.724 692.513C489.55 698.501 497.478 703.519 499.923 705.164C499.46 705.586 455.477 744.719 440.507 756.358C430.681 753.785 379.108 728.188 364.053 716.212ZM365.656 739.701C384.758 748.135 428.151 767.701 438.145 769.599C439.874 769.936 440.549 770.063 443.838 767.448C457.88 756.189 503.55 708.411 503.972 708.917C503.992 709.043 503.992 709.171 503.972 709.297V717.73C494.568 725.279 442.278 780.184 441.434 777.569C437.217 777.569 368.692 749.611 365.192 748.05C365.107 746.279 365.487 741.556 365.656 739.701ZM442.446 797.81C438.229 800.214 374.005 774.111 365.403 768.798C365.079 766.111 364.925 763.407 364.939 760.701C383.409 769.81 437.133 792.497 442.067 792.286C449.278 791.907 500.261 734.514 503.887 730.508C503.929 732.662 503.717 734.813 503.255 736.918C502.538 738.309 445.229 796.25 442.446 797.81ZM93.0716 560.101C93.3667 564.613 93.5776 568.535 93.5776 572.203C93.5776 572.763 93.7997 573.299 94.1952 573.694C94.5906 574.09 95.1269 574.312 95.6861 574.312C96.2453 574.312 96.7816 574.09 97.177 573.694C97.5724 573.299 97.7945 572.763 97.7945 572.203C97.7945 568.282 97.5837 564.402 97.2885 559.805C97.2494 559.246 96.9897 558.725 96.5666 558.358C96.1435 557.99 95.5916 557.805 95.0324 557.845C94.4732 557.884 93.9525 558.143 93.5848 558.566C93.217 558.99 93.0324 559.541 93.0716 560.101ZM735.609 475.551C735.334 475.567 735.064 475.638 734.817 475.759C734.569 475.881 734.349 476.051 734.168 476.259C733.987 476.467 733.85 476.71 733.764 476.972C733.678 477.234 733.646 477.511 733.669 477.786C733.922 481.665 734.175 485.84 734.175 489.888C734.175 490.448 734.397 490.984 734.793 491.379C735.188 491.775 735.724 491.997 736.284 491.997C736.843 491.997 737.379 491.775 737.775 491.379C738.17 490.984 738.392 490.448 738.392 489.888C738.392 485.671 738.139 481.454 737.844 477.491C737.828 477.215 737.757 476.946 737.635 476.698C737.514 476.451 737.344 476.23 737.135 476.049C736.927 475.869 736.685 475.731 736.423 475.646C736.161 475.56 735.884 475.528 735.609 475.551ZM82.1496 549.6C82.7088 549.6 83.2451 549.378 83.6406 548.983C84.036 548.587 84.2581 548.051 84.2581 547.492C84.2581 546.933 84.036 546.396 83.6406 546.001C83.2451 545.606 82.7088 545.383 82.1496 545.383C77.0471 545.383 72.788 545.763 68.5711 545.679C68.0079 545.678 67.4672 545.899 67.065 546.294C66.6629 546.688 66.4314 547.224 66.4204 547.787C66.4204 548.346 66.6425 548.883 67.038 549.278C67.4334 549.673 67.9697 549.896 68.5289 549.896C72.8723 549.98 77.6375 549.811 82.1496 549.6ZM722.536 463.068C717.476 463.068 713.217 463.364 708.958 463.406C708.399 463.406 707.862 463.628 707.467 464.023C707.072 464.419 706.849 464.955 706.849 465.514C706.849 466.074 707.072 466.61 707.467 467.005C707.862 467.401 708.399 467.623 708.958 467.623C713.512 467.623 718.235 467.623 722.789 467.285C723.349 467.252 723.872 466.998 724.243 466.578C724.615 466.159 724.805 465.61 724.771 465.05C724.738 464.491 724.484 463.968 724.064 463.597C723.645 463.225 723.096 463.035 722.536 463.068ZM91.933 523.54C92.186 527.419 92.439 531.594 92.439 535.642C92.4498 536.198 92.6754 536.728 93.0685 537.121C93.4616 537.514 93.9917 537.74 94.5475 537.751C95.1067 537.751 95.643 537.529 96.0384 537.133C96.4338 536.738 96.656 536.202 96.656 535.642C96.656 531.425 96.403 527.208 96.1499 523.244C96.1108 522.685 95.8511 522.164 95.428 521.797C95.0049 521.429 94.4531 521.244 93.8939 521.284C93.3347 521.323 92.8139 521.582 92.4462 522.005C92.0784 522.429 91.8938 522.98 91.933 523.54ZM737.254 453.327C737.254 449.11 737.001 444.893 736.705 440.929C736.666 440.37 736.407 439.85 735.983 439.482C735.56 439.114 735.009 438.929 734.449 438.969C733.89 439.008 733.369 439.267 733.002 439.691C732.634 440.114 732.449 440.665 732.488 441.225C732.741 445.104 732.995 449.279 732.995 453.327C732.995 453.887 733.217 454.423 733.612 454.818C734.007 455.214 734.544 455.436 735.103 455.436C735.666 455.436 736.207 455.215 736.609 454.821C737.011 454.427 737.243 453.89 737.254 453.327ZM123.054 549.052C123.331 549.041 123.603 548.976 123.855 548.86C124.107 548.744 124.333 548.579 124.521 548.375C124.709 548.172 124.855 547.933 124.95 547.673C125.046 547.413 125.09 547.136 125.078 546.859C125.036 546.307 124.786 545.792 124.379 545.417C123.973 545.041 123.439 544.834 122.885 544.835C117.783 545.046 113.524 545.215 109.265 545.13C108.705 545.13 108.169 545.353 107.774 545.748C107.378 546.143 107.156 546.68 107.156 547.239C107.156 547.798 107.378 548.334 107.774 548.73C108.169 549.125 108.705 549.347 109.265 549.347C113.777 549.432 118.5 549.263 123.054 549.052ZM763.441 462.52C759.224 462.731 754.543 462.858 749.862 462.858C749.584 462.846 749.306 462.891 749.046 462.99C748.785 463.089 748.547 463.239 748.346 463.432C748.145 463.625 747.986 463.857 747.877 464.113C747.768 464.37 747.711 464.645 747.712 464.924C747.712 465.487 747.932 466.028 748.327 466.43C748.721 466.832 749.257 467.064 749.82 467.075C754.627 467.075 758.507 467.075 763.61 466.737C763.887 466.726 764.159 466.661 764.41 466.545C764.662 466.429 764.888 466.264 765.076 466.061C765.264 465.857 765.41 465.618 765.506 465.358C765.602 465.098 765.645 464.821 765.634 464.544C765.582 463.996 765.329 463.486 764.925 463.113C764.52 462.739 763.992 462.528 763.441 462.52ZM26.1485 424.104C26.6967 424.526 145.615 406.899 150.717 403.778C151 403.572 151.225 403.297 151.373 402.98C151.521 402.663 151.585 402.314 151.561 401.965C151.561 396.525 144.434 345.458 141.018 332.722C140.597 331.162 140.175 329.602 139.205 329.054C132.753 325.174 19.064 346.596 12.2747 350.982C12.0907 351.091 11.9317 351.237 11.8082 351.411C11.6846 351.586 11.5993 351.784 11.5578 351.994C10.124 357.096 22.4797 421.574 26.1485 424.104ZM14.1302 353.006C22.2267 349.337 125.416 330.445 137.223 331.921C140.091 339.301 147.765 393.362 148.271 401.29C142.41 403.019 27.7509 422.712 27.3292 422.797C26.9075 422.881 26.8654 423.387 25.9798 420.73C22.2689 409.598 13.9193 362.536 14.1302 353.006Z" fill="#5E95DD"/>
<path d="M159.995 407.531C160.225 407.105 160.327 406.622 160.29 406.139C160.29 399.434 150.676 325.005 147.26 319.059C146.992 318.621 146.613 318.261 146.161 318.017C145.709 317.772 145.201 317.652 144.688 317.668C130.561 315.939 11.3896 339.216 3.54603 344.656C2.44962 345.415 2.6183 347.313 2.74481 349.337C3.41952 360.428 15.3957 433.381 19.6126 432.959C20.0765 432.959 19.9078 432.622 18.8114 434.857C12.233 448.393 -0.249229 491.744 0.0037886 500.473C0.0037886 504.141 0.847177 508.907 4.47376 508.654C30.4924 505.449 158.055 485.207 194.743 477.659C196.177 477.364 197.104 476.057 197.062 473.906C196.629 470.323 195.543 466.85 193.857 463.659C188.713 454.002 167.375 415.754 159.995 407.531ZM19.8656 431.652C16.5764 427.435 4.47376 354.777 5.40149 346.723C14.6788 341.915 132.248 319.186 144.561 321.041C147.935 330.319 156.664 397.326 157.212 405.38C142.284 410.525 38.9263 427.224 19.8656 431.652ZM21.7211 432.917C25.2633 432.032 145.91 411.832 156.959 408.923C162.989 414.531 190.231 462.984 192.002 467.117C167.796 471.334 24.2091 495.328 3.08216 498.533C3.37735 485.756 16.4921 441.098 21.7211 432.917Z" fill="#5E95DD"/>
<path d="M37.5766 476.647C41.2454 476.099 119.09 466.738 147.217 459.105C147.391 459.06 147.539 458.948 147.63 458.794C147.721 458.64 147.747 458.456 147.702 458.283C147.658 458.109 147.546 457.961 147.392 457.87C147.237 457.779 147.053 457.753 146.88 457.798C141.356 458.936 73.9689 467.918 37.4923 475.34C37.3915 475.322 37.2879 475.327 37.1894 475.355C37.0909 475.383 37 475.433 36.9236 475.501C36.8472 475.569 36.7873 475.654 36.7485 475.748C36.7097 475.843 36.6929 475.946 36.6995 476.048C36.7061 476.15 36.7359 476.249 36.7865 476.338C36.8372 476.427 36.9075 476.503 36.992 476.561C37.0765 476.619 37.1731 476.657 37.2744 476.672C37.3756 476.687 37.479 476.678 37.5766 476.647ZM94.4633 183.232C92.888 186.789 91.5635 190.453 90.4994 194.196C90.4367 194.796 90.6023 195.398 90.9633 195.883C95.2224 202.292 138.868 251.504 150.254 258.42C151.814 259.39 153.669 260.065 154.808 258.673C163.079 248.381 173.873 240.406 186.14 235.522C196.124 231.99 206.592 230.013 217.177 229.66C225.611 228.901 227.087 228.058 230.334 222.534C234.164 215.264 239.246 208.726 245.346 203.22C253.124 196.419 261.758 190.663 271.027 186.099C271.445 185.863 271.771 185.494 271.954 185.05C272.138 184.607 272.168 184.116 272.039 183.653C270.614 180.026 268.729 176.596 266.431 173.448C267.949 172.942 269.636 172.478 269.636 170.96C269.636 166.743 232.864 113.525 222.659 103.489C221.605 102.435 220.086 101.043 218.695 101.128C197.61 102.308 177.074 122.212 165.182 139.586C151.561 139.08 142.747 137.857 127.229 144.394C116.274 149.044 106.397 155.906 98.2164 164.551C96.9513 165.858 88.3488 174.966 88.2223 175.683C88.0957 176.4 88.3488 176.4 94.4633 183.232ZM263.142 182.051C245.557 185.045 234.34 199.678 226.075 215.576C222.406 222.66 222.743 222.998 218.864 222.913C212.079 222.529 205.274 222.783 198.538 223.672C193.597 224.411 188.739 225.625 184.031 227.299C173.32 231.094 161.049 243.239 154.513 252.263C154.374 252.449 154.197 252.603 153.995 252.716C153.792 252.828 153.568 252.897 153.337 252.917C153.106 252.937 152.874 252.907 152.655 252.831C152.436 252.755 152.236 252.633 152.067 252.474C138.362 238.347 114.114 213.552 101.927 199.298C101.337 198.666 102.349 197.738 102.939 198.413C110.825 206.847 131.193 227.046 153.037 249.016C160.417 239.612 171.802 228.227 183.062 224.263C189.201 222.073 195.59 220.656 202.08 220.046C208.158 219.584 214.262 219.584 220.339 220.046C222.827 217.178 235.141 184.623 263.057 180.997C263.139 181.057 263.206 181.134 263.254 181.224C263.301 181.313 263.328 181.412 263.332 181.514C263.336 181.615 263.317 181.716 263.277 181.809C263.237 181.902 263.176 181.985 263.099 182.051H263.142ZM218.653 104.543C227.087 110.447 261.413 161.261 265.883 170.159C258.126 172.617 250.638 175.852 243.533 179.816C236.804 183.189 230.913 188.021 226.287 193.959C221.662 199.897 218.42 206.792 216.797 214.142C201.658 189.515 180.531 162.4 166.489 142.454C167.332 141.906 191.032 106.188 218.653 104.543ZM128.157 146.713C143.549 140.514 152.067 141.948 164.802 142.496C177.453 164.087 200.182 194.533 215.153 214.479C201.336 211.21 186.796 213.21 174.375 220.088C166.911 224.305 157.802 234.426 152.193 240.709C144.097 234.215 97.373 184.455 89.8669 176.021C101.421 162.948 112.09 153.123 128.157 146.544V146.713ZM50.9865 253.95C49.9443 253.219 48.7122 252.805 47.4396 252.76C46.1671 252.716 44.9089 253.041 43.8177 253.697C43.023 254.051 42.306 254.559 41.7074 255.19C41.1089 255.822 40.6406 256.565 40.3292 257.378C40.0179 258.19 39.8697 259.056 39.8931 259.926C39.9164 260.796 40.1108 261.652 40.4652 262.447C40.8196 263.242 41.3271 263.959 41.9587 264.557C42.5902 265.156 43.3335 265.624 44.146 265.936C44.9585 266.247 45.8244 266.395 46.6942 266.372C47.564 266.349 48.4207 266.154 49.2154 265.8C50.4849 265.522 51.64 264.865 52.5277 263.916C53.4153 262.967 53.9935 261.771 54.1856 260.485C54.3777 259.2 54.1746 257.887 53.6033 256.72C53.032 255.553 52.1194 254.587 50.9865 253.95ZM48.2033 262.384C45.2515 263.312 43.4804 262.384 42.7635 260.95C41.414 257.956 43.1008 253.36 47.4865 254.709C50.5648 255.848 53.0528 261.035 48.2033 262.595V262.384ZM265.419 60.9821C266.642 63.4701 272.335 62.5424 274.823 61.7412C276.13 61.3195 276.973 60.8556 277.1 59.5905C277.479 56.4278 277.901 29.0176 276.467 26.3609C276.319 26.0823 276.092 25.8537 275.814 25.7037C275.537 25.5536 275.221 25.4889 274.907 25.5175C270.408 25.505 265.931 26.1587 261.623 27.4573C259.895 28.5116 263.901 58.1989 265.419 60.9821ZM262.509 28.4694C266.404 27.9121 270.344 27.7286 274.274 27.9212C274.527 31.0417 273.853 58.0724 273.81 58.4941C272.029 59.1326 270.127 59.3631 268.244 59.1688C267.949 58.1989 267.443 55.5844 266.81 52.2952C264.952 44.4358 263.516 36.4824 262.509 28.4694ZM46.8961 218.359C47.3007 218.566 47.7488 218.674 48.2033 218.674C48.6579 218.674 49.106 218.566 49.5106 218.359C51.1398 217.354 52.4319 215.886 53.2215 214.142C53.3288 213.863 53.3618 213.561 53.3175 213.265C53.2732 212.97 53.1529 212.69 52.9685 212.455C50.9444 210.051 28.8475 184.455 26.1487 186.057C22.835 188.202 19.6912 190.599 16.7449 193.226C16.6261 193.332 16.531 193.462 16.4656 193.607C16.4002 193.753 16.3661 193.91 16.3653 194.069C16.281 196.262 40.8237 215.913 46.8961 218.359ZM26.6547 187.153C29.7331 189.388 40.1068 202.208 49.7214 213.552C49.3078 214.203 48.7957 214.786 48.2033 215.281C38.0947 208.811 28.4432 201.653 19.3172 193.858C21.605 191.456 24.0567 189.216 26.6547 187.153ZM92.9031 94.1274C93.8308 77.7656 103.361 70.1751 113.313 68.2353C110.488 78.609 110.952 92.1033 121.199 93.8322C126.091 94.6334 128.494 92.1033 132.036 89.1514C147.175 76.5005 134.946 63.8497 117.867 64.7352C124.235 47.277 138.952 33.0659 158.477 32.602C158.656 32.602 158.827 32.5309 158.954 32.4044C159.08 32.2779 159.151 32.1062 159.151 31.9273C159.151 31.7484 159.08 31.5767 158.954 31.4502C158.827 31.3237 158.656 31.2526 158.477 31.2526C137.392 30.8309 120.819 46.0119 114.283 64.9882C103.024 66.928 91.8488 75.3619 91.5536 93.8744C91.537 93.963 91.538 94.054 91.5566 94.1422C91.5752 94.2304 91.6109 94.3141 91.6618 94.3885C91.7127 94.4629 91.7778 94.5266 91.8533 94.5758C91.9288 94.6251 92.0132 94.659 92.1019 94.6756C92.1905 94.6922 92.2815 94.6912 92.3697 94.6727C92.4579 94.6541 92.5416 94.6183 92.616 94.5674C92.6904 94.5165 92.754 94.4515 92.8033 94.376C92.8526 94.3005 92.8865 94.216 92.9031 94.1274ZM116.898 67.7293C123.181 67.3076 132.542 69.2474 135.115 74.9402C136.591 78.1873 135.115 82.1934 129.886 86.579C128.466 88.0012 126.847 89.2088 125.078 90.1635C118.753 92.8623 111.753 85.0609 116.898 67.7293ZM128.958 664.133C124.884 663.042 120.633 662.777 116.454 663.353C112.276 663.929 108.255 665.335 104.629 667.488C101.002 669.642 97.8425 672.498 95.3363 675.891C92.8302 679.283 91.0279 683.143 90.0355 687.242C88.1622 695.759 89.7488 704.671 94.4464 712.018C99.1439 719.365 106.568 724.544 115.084 726.418C123.601 728.291 132.513 726.704 139.86 722.007C147.207 717.309 152.386 709.886 154.26 701.369C155.06 697.261 155.039 693.036 154.199 688.936C153.358 684.837 151.715 680.944 149.363 677.483C147.011 674.021 143.997 671.06 140.495 668.768C136.993 666.477 133.072 664.902 128.958 664.133ZM141.988 698.501C140.296 705.25 136.246 711.17 130.569 715.192C124.892 719.214 117.963 721.071 111.036 720.43C104.677 717.945 99.3975 713.297 96.1271 707.304C92.8567 701.311 91.8047 694.356 93.1561 687.664C94.734 680.752 98.747 674.639 104.461 670.442C110.176 666.245 117.21 664.245 124.277 664.808C130.699 667.461 135.979 672.295 139.188 678.458C142.397 684.621 143.329 691.719 141.82 698.501H141.988Z" fill="#5E95DD"/>
<path d="M185.128 676.151C181.457 674.884 177.523 674.579 173.7 675.265C172.116 671.633 170.166 668.171 167.881 664.934C170.622 662.446 178.128 655.53 176.315 652.283C169.861 644.564 162.2 637.942 153.628 632.674C150.048 630.669 146.107 629.393 142.031 628.921C139.332 629.3 132.922 639.801 131.489 642.162C130.561 642.162 127.272 641.108 127.019 640.981C127.019 637.945 126.133 626.981 123.392 625.716C120.327 624.588 117.144 623.81 113.904 623.397C110.91 622.933 83.9634 627.867 81.9815 631.493C80.6742 633.939 83.7104 643.174 84.596 645.747C82.3217 646.998 80.1376 648.407 78.0597 649.964C73.8427 652.958 74.9813 652.831 74.2223 652.494C73.3049 652.056 72.322 651.771 71.3126 651.65C67.9439 649.675 63.9944 648.93 60.1376 649.542C56.258 650.807 47.1072 671.639 45.6313 676.994C45.1483 678.345 45.0177 679.796 45.2518 681.211C46.2638 683.994 53.011 686.229 55.8363 687.115C55.0561 692.541 55.0561 698.051 55.8363 703.477C52.1254 704.489 44.4084 706.766 44.8301 710.561C45.2518 714.357 55.1195 739.405 59.2099 741.387C61.4507 742.64 63.9286 743.411 66.4847 743.651C69.0409 743.891 71.6189 743.594 74.0536 742.779C75.4248 742.094 76.749 741.319 78.0175 740.459C79.7043 741.724 81.4754 742.863 83.2887 743.96C81.9815 747.207 79.0718 754.46 79.9995 757.749C80.4634 759.478 81.855 760.026 83.7948 760.743C89.1503 762.683 117.994 769.599 122.38 768.84C124.025 768.587 124.91 766.858 125.416 765.213C126.353 761.47 126.904 757.641 127.061 753.785C129.226 753.571 131.38 753.248 133.513 752.815C134.815 755.107 136.481 757.172 138.446 758.93C140.597 760.448 142.41 759.689 144.856 758.128C146.037 759.647 147.808 761.755 149.706 761.966C154.471 762.514 174.164 743.96 176.188 740.164C177.875 737.002 171.718 731.351 168.977 728.863C171.942 724.401 174.27 719.547 175.893 714.441C178.935 714.899 182.013 715.069 185.086 714.947C186.478 714.947 188.08 714.441 188.67 713.134C191.243 707.272 190.484 685.049 188.67 679.398C188.417 677.753 186.52 676.657 185.128 676.151ZM186.14 680.03C187.574 685.513 188.038 706.218 185.929 711.573C182.283 711.933 178.605 711.762 175.007 711.067C174.623 711.002 174.229 711.082 173.901 711.293C173.573 711.503 173.336 711.829 173.236 712.206C171.557 717.907 168.95 723.292 165.519 728.146C165.275 728.467 165.165 728.871 165.212 729.272C165.259 729.673 165.46 730.041 165.772 730.297C168.731 732.641 171.245 735.498 173.194 738.731C171.086 742.188 154.597 757.285 150.043 758.55C149.368 758.55 147.513 756.02 147.049 755.345C145.491 753.005 144.083 750.568 142.832 748.05C142.65 747.683 142.336 747.397 141.954 747.249C141.572 747.101 141.148 747.101 140.766 747.249C128.537 751.845 123.898 749.146 123.898 752.183C123.903 756.728 123.163 761.244 121.705 765.55C111.795 764.473 102.036 762.295 92.6082 759.056C93.0635 754.554 94.3203 750.17 96.3191 746.11C97.5842 743.285 92.5239 744.086 83.0779 734.471C82.7739 734.19 82.3748 734.033 81.9604 734.033C81.546 734.033 81.1469 734.19 80.8429 734.471C76.6259 737.929 71.1439 741.303 70.0475 740.755C67.8968 739.7 57.987 717.224 57.3966 712.67C60.396 710.58 63.8009 709.143 67.3908 708.453C67.7737 708.344 68.1043 708.101 68.3214 707.768C68.5385 707.434 68.6274 707.033 68.5715 706.639C67.5381 700.668 67.5381 694.563 68.5715 688.591C68.636 688.223 68.5587 687.845 68.3553 687.532C68.1518 687.219 67.8373 686.995 67.4751 686.904C64.2961 686.071 61.2355 684.838 58.3665 683.235C57.4388 682.561 57.5231 682.603 57.6075 681.886C60.3369 672.042 64.7142 662.731 70.5535 654.349C72.8307 653.717 78.9874 658.229 81.0959 659.831C81.3162 660.045 81.6112 660.165 81.9182 660.165C82.2252 660.165 82.5202 660.045 82.7405 659.831C84.6781 657.822 86.7644 655.961 88.9816 654.265C95.3914 649.415 97.1203 650.048 96.5721 648.361C94.6336 644.13 93.5447 639.56 93.3672 634.909C94.0208 634.366 94.7624 633.938 95.5601 633.644C99.497 632.087 103.542 630.819 107.663 629.849C112.658 628.457 117.792 627.622 122.97 627.361C123.856 627.74 124.657 631.578 124.868 632.758C126.428 641.192 125.374 642.921 126.597 643.048C138.615 644.229 141.061 647.56 141.904 646.084C144.243 641.995 146.968 638.14 150.043 634.572C150.929 633.686 150.887 633.264 153.543 634.782C161.48 639.969 168.588 646.324 174.628 653.632C175.261 654.729 169.778 660.548 165.772 663.964C164.381 665.187 166.363 665.735 169.989 672.651C173.616 679.567 172.773 681.506 174.712 681.085C178.452 680.19 182.3 679.834 186.14 680.03ZM771.412 327.662C762.572 324.051 753.302 321.599 743.833 320.366C736.917 319.27 728.778 318.173 721.904 317.288C728.525 307.926 748.134 284.227 751.423 278.45C752.351 276.889 750.58 274.697 749.273 273.389C741.935 265.546 727.766 262.594 716.886 260.907C710.645 259.895 684.584 256.69 680.157 258.799C674.843 261.329 635.541 320.366 634.36 329.348C634.36 330.867 634.867 331.457 636.342 332.005C642.541 334.282 670.5 337.824 676.741 339.3C668.307 354.06 630.818 403.946 627.149 410.989C626.264 412.76 626.812 413.814 627.866 414.151C631.661 415.658 635.566 416.87 639.547 417.778C641.065 418.242 644.397 416.176 649.246 413.224C671.006 400.151 764.369 338.499 771.538 330.529C771.736 330.342 771.891 330.115 771.993 329.862C772.096 329.61 772.142 329.339 772.13 329.066C772.118 328.794 772.048 328.528 771.924 328.286C771.8 328.043 771.625 327.831 771.412 327.662ZM680.789 378.265C644.945 401.922 632.842 408.838 632.421 409.133C638.198 400.32 674.084 351.15 680.241 339.385C680.348 339.158 680.403 338.909 680.402 338.658C680.401 338.407 680.344 338.159 680.235 337.932C680.126 337.706 679.967 337.507 679.771 337.35C679.576 337.192 679.347 337.081 679.102 337.023C674.885 335.505 644.186 332.216 636.933 329.644C637.861 321.8 676.151 262.51 680.789 260.148C685.428 257.787 730.423 263.142 738.857 269.172C734.429 277.817 709.97 308.095 706.007 315.137C705.205 316.571 704.952 317.963 706.513 318.342C708.073 318.722 747.712 323.36 756.357 326.186C745.815 334.999 692.597 370.337 680.789 378.096V378.265ZM410.271 120.44C410.271 120.82 410.524 121.284 411.157 123.73C411.323 124.26 411.688 124.706 412.175 124.973C412.663 125.241 413.235 125.309 413.772 125.163C414.308 125.007 414.761 124.643 415.03 124.153C415.299 123.663 415.362 123.086 415.205 122.549C414.784 120.904 414.404 119.513 414.151 118.838C413.905 118.375 413.496 118.02 413.003 117.842C412.51 117.665 411.968 117.677 411.484 117.877C410.999 118.077 410.607 118.451 410.382 118.925C410.158 119.399 410.119 119.939 410.271 120.44Z" fill="#5E95DD"/>
</svg>
