<svg width="655" height="520" viewBox="0 0 655 520" fill="none" xmlns="http://www.w3.org/2000/svg">
<path d="M250.228 364.367C254.828 361.369 258.029 355.739 258.26 350.255C257.575 344.48 255.075 339.642 251.365 335.429C236.491 317.446 217.163 278.519 211.706 260.136C211.021 254.36 208.813 248.605 205.396 243.474C193.874 231.25 175.648 240.298 176.327 255.43C176.639 256.035 176.034 256.347 176.347 256.952C177.328 265.204 187.778 270.881 173.939 281.95C171.243 285.067 139.836 316.429 136.213 320.501C134.762 322.129 139.019 325.101 140.476 324.071C148.156 318.623 163.375 299.715 171.031 292.647C176.256 287.827 181.252 282.769 185.737 276.62C188.408 271.408 188.327 265.32 184.909 260.19C181.784 254.142 182.893 245.907 190.483 244.284C199.595 242.641 202.448 251.128 204.675 258.405C209.679 280.577 230.414 320.731 245.61 337.636C249.944 343.059 255.529 350.901 248.917 357.382C243.202 362.634 235.844 358.774 232.719 352.726C230.824 347.576 225.905 343.987 220.714 342.839C203.402 343.071 167.357 352.726 156.676 353.569C152.124 353.926 155.591 359.269 157.761 359.019C172.204 357.35 197.801 351.151 213.497 349.633C216.833 348.675 220.19 349.239 222.649 351.033C224.816 353.745 226.066 356.164 227.629 359.187C232.296 366.737 242.796 369.211 250.228 364.367Z" fill="#5E95DD"/>
<path d="M375.003 357.8C447.711 277.441 381.344 136.334 272.699 141.856C222.038 144.09 181.982 183.325 156.089 224.511C141.078 248.568 128.615 273.425 112.165 295.676C109.748 292.43 107.536 290.37 103.18 291.243C91.8588 294.776 80.8521 298.918 70.7853 304.893C58.8729 310.276 47.5905 316.878 36.3081 323.48C35.0873 324.111 34.1815 325.352 34.8116 326.571C40.8812 348.278 65.4512 406.742 90.9252 438.158C92.1656 439.062 93.091 439.356 94.3118 438.725C114.595 429.556 141.593 416.325 159.289 402.833C162.827 399.5 162.02 396.235 160.795 392.406C234.95 392.495 249.359 405.824 311.849 392.744C336.363 387.801 358.022 375.837 375 357.795L375.003 357.8ZM150.983 401.725C133.054 413.219 113.971 423.872 94.5483 432.577C76.0741 409.663 49.9345 356.857 41.4598 326.844C48.646 322.585 56.0142 318.471 63.515 314.589C79.5401 346.04 104.27 397.111 112.742 414.526C113.372 415.746 114.908 415.724 116.129 415.094C116.739 414.778 117.035 413.853 117.015 412.319C113.879 406.055 73.4411 323.696 67.554 312.535C73.7485 309.427 80.0274 306.496 86.3886 303.788C94.7532 319.808 104.397 335.246 113 351.895C136.295 396.976 131.532 389.669 138.025 402.234C139.285 404.673 142.948 402.78 141.688 400.342C125.915 363.6 106.879 330.269 89.605 302.439C92.8112 301.122 96.0394 299.86 99.2763 298.667C105.906 295.241 106.951 295.56 111.011 303.417C133.51 336.197 153.4 382.198 156.749 396.421C156.158 398.271 153.106 399.848 150.98 401.72L150.983 401.725ZM239.946 391.285C213.155 389.255 185.088 382.637 158.907 387.309C142.049 342.285 138.169 334.402 115.306 300.258C143.199 272.115 148.925 231.935 197.343 183.118C231.381 148.804 280.997 135.917 327.911 158.904C397.354 193.702 423.474 290.738 373.369 350.148C341.293 388.349 286.374 394.329 239.946 391.285Z" fill="#252525"/>
<path d="M471.337 292.812L526.439 301.27M474.774 175.442L539.327 154.481M393.819 106.734L436.644 46.798" stroke="#5E95DD" stroke-width="6" stroke-linecap="round"/>
</svg>
