<svg width="35" height="35" viewBox="0 0 35 35" fill="none" xmlns="http://www.w3.org/2000/svg">
<path fill-rule="evenodd" clip-rule="evenodd" d="M17.5 12.0312C20.5203 12.0312 22.9688 14.4797 22.9688 17.5C22.9688 20.5204 20.5203 22.9687 17.5 22.9687C14.4796 22.9687 12.0313 20.5204 12.0313 17.5C12.0313 14.4797 14.4796 12.0312 17.5 12.0312ZM20.7812 17.5C20.7812 15.6879 19.3121 14.2188 17.5 14.2188C15.6879 14.2188 14.2188 15.6879 14.2188 17.5C14.2188 19.3121 15.6879 20.7812 17.5 20.7812C19.3121 20.7812 20.7812 19.3121 20.7812 17.5Z" fill="#6C6C6C"/>
<path fill-rule="evenodd" clip-rule="evenodd" d="M17.5364 1.82288C18.1845 1.82286 18.7257 1.82286 19.1699 1.85317C19.6323 1.88472 20.0691 1.95274 20.4926 2.12815C21.4753 2.53518 22.256 3.3159 22.663 4.29857C22.8749 4.81016 22.9323 5.3493 22.9542 5.93532C22.9718 6.4064 23.2096 6.79945 23.5604 7.00202C23.9113 7.20458 24.3705 7.21394 24.7873 6.99366C25.3058 6.71962 25.8014 6.49974 26.3504 6.42746C27.4049 6.28863 28.4714 6.5744 29.3153 7.2219C29.6789 7.50094 29.9562 7.84521 30.2148 8.22992C30.4631 8.59947 30.7337 9.06809 31.0577 9.62944L31.0946 9.69322C31.4187 10.2546 31.6892 10.7231 31.8851 11.123C32.089 11.5393 32.2485 11.9516 32.3083 12.406C32.4471 13.4606 32.1614 14.527 31.5139 15.3709C31.1768 15.81 30.7387 16.1294 30.2422 16.4414C29.8429 16.6922 29.6214 17.0947 29.6214 17.5C29.6214 17.9051 29.843 18.3076 30.2422 18.5584C30.7387 18.8704 31.1769 19.1897 31.514 19.629C32.1615 20.4728 32.4473 21.5392 32.3085 22.5938C32.2486 23.0482 32.0891 23.4606 31.8852 23.8768C31.6894 24.2767 31.4188 24.7452 31.0947 25.3066L31.0579 25.3704C30.7338 25.9317 30.4633 26.4003 30.2149 26.7699C29.9564 27.1546 29.679 27.4989 29.3154 27.7779C28.4716 28.4254 27.4051 28.7112 26.3505 28.5724C25.8016 28.5 25.306 28.2802 24.7876 28.0062C24.3707 27.7859 23.9114 27.7952 23.5605 27.9979C23.2096 28.2005 22.9718 28.5935 22.9542 29.0647C22.9323 29.6506 22.8749 30.1898 22.663 30.7014C22.256 31.684 21.4753 32.4648 20.4926 32.8718C20.0691 33.0473 19.6323 33.1152 19.1699 33.1467C18.7257 33.177 18.1845 33.177 17.5364 33.177H17.4628C16.8146 33.177 16.2735 33.177 15.8292 33.1467C15.3667 33.1152 14.93 33.0473 14.5065 32.8718C13.5238 32.4648 12.743 31.684 12.336 30.7014C12.1241 30.1898 12.0668 29.6506 12.0449 29.0645C12.0273 28.5935 11.7896 28.2005 11.4387 27.9978C11.0878 27.7952 10.6285 27.7859 10.2117 28.0061C9.69322 28.2801 9.19768 28.5 8.64861 28.5722C7.5941 28.711 6.52762 28.4254 5.68382 27.7779C5.32012 27.4987 5.04289 27.1546 4.78432 26.7699C4.53597 26.4003 4.26545 25.9317 3.94141 25.3704L3.90451 25.3066C3.58047 24.7452 3.3098 24.2765 3.11395 23.8767C2.91007 23.4605 2.75068 23.0482 2.69074 22.5938C2.55191 21.5391 2.83774 20.4726 3.48524 19.6288C3.82226 19.1896 4.26049 18.8704 4.75691 18.5584C5.1562 18.3076 5.37772 17.9051 5.37772 17.4998C5.37772 17.0947 5.1562 16.6923 4.75706 16.4415C4.26035 16.1296 3.82212 15.8103 3.4851 15.3709C2.8376 14.5271 2.55176 13.4607 2.6906 12.4061C2.75053 11.9517 2.90993 11.5394 3.1138 11.1231C3.30966 10.7233 3.58018 10.2547 3.90437 9.69343L3.94112 9.6296C4.2653 9.06824 4.53582 8.59958 4.78418 8.23002C5.04274 7.84531 5.31997 7.50104 5.68368 7.22199C6.52747 6.57451 7.59395 6.28873 8.64861 6.42756C9.19753 6.49984 9.69308 6.7197 10.2115 6.99372C10.6283 7.21403 11.0877 7.20465 11.4386 7.00206C11.7894 6.79948 12.0273 6.40637 12.0449 5.93525C12.0668 5.34924 12.1241 4.81013 12.336 4.29857C12.743 3.3159 13.5238 2.53518 14.5065 2.12815C14.93 1.95274 15.3667 1.88472 15.8292 1.85317C16.2735 1.82286 16.8146 1.82286 17.4628 1.82288H17.5364ZM19.6555 4.14914C19.5429 4.10253 19.372 4.05955 19.021 4.03559C18.6601 4.01097 18.194 4.01038 17.4995 4.01038C16.8051 4.01038 16.339 4.01097 15.9782 4.03559C15.627 4.05955 15.4561 4.10253 15.3437 4.14914C14.897 4.33416 14.542 4.68903 14.3571 5.1357C14.2986 5.27659 14.2504 5.49623 14.2308 6.017C14.1877 7.17255 13.5912 8.28517 12.5323 8.89649C11.4736 9.50783 10.2117 9.46804 9.18937 8.9277C8.72868 8.68419 8.51416 8.61626 8.36308 8.59635C7.88372 8.53325 7.39897 8.66315 7.01543 8.95745C6.91874 9.03159 6.79609 9.15813 6.5998 9.45019C6.39797 9.75042 6.16449 10.1538 5.81726 10.7552C5.47003 11.3566 5.23743 11.7605 5.07832 12.0854C4.92359 12.4014 4.87533 12.5709 4.85943 12.6916C4.79628 13.171 4.92622 13.6557 5.22051 14.0393C5.31341 14.1603 5.47937 14.312 5.9208 14.5893C6.89978 15.2045 7.56507 16.2773 7.56522 17.4998C7.56522 18.7225 6.89993 19.7954 5.9208 20.4106C5.47951 20.6879 5.31355 20.8395 5.22066 20.9606C4.92637 21.3441 4.79643 21.8289 4.85957 22.3082C4.87547 22.429 4.92374 22.5984 5.07847 22.9145C5.23758 23.2392 5.47018 23.6432 5.81741 24.2446C6.16464 24.846 6.39812 25.2494 6.59995 25.5497C6.79624 25.8416 6.91889 25.9682 7.01558 26.0423C7.39912 26.3367 7.88387 26.4665 8.36322 26.4035C8.5143 26.3835 8.72883 26.3156 9.18951 26.0722C10.2118 25.5317 11.4737 25.4921 12.5326 26.1034C13.5912 26.7147 14.1877 27.8273 14.2308 28.9829C14.2504 29.5036 14.2986 29.7233 14.3571 29.8643C14.542 30.3108 14.897 30.6658 15.3437 30.8509C15.4561 30.8974 15.627 30.9404 15.9782 30.9643C16.339 30.989 16.8051 30.9895 17.4995 30.9895C18.194 30.9895 18.6601 30.989 19.021 30.9643C19.372 30.9404 19.5429 30.8974 19.6555 30.8509C20.1021 30.6658 20.457 30.3108 20.642 29.8643C20.7004 29.7233 20.7488 29.5036 20.7683 28.9829C20.8115 27.8274 21.4079 26.7147 22.4668 26.1034C23.5256 25.4921 24.7874 25.5319 25.8097 26.0722C26.2705 26.3157 26.4849 26.3837 26.6361 26.4035C27.1154 26.4667 27.6002 26.3367 27.9837 26.0424C28.0804 25.9684 28.203 25.8418 28.3993 25.5497C28.6011 25.2495 28.8346 24.8462 29.1819 24.2447C29.5291 23.6433 29.7616 23.2394 29.9207 22.9146C30.0755 22.5986 30.1238 22.429 30.1397 22.3082C30.2028 21.8289 30.0729 21.3441 29.7786 20.9606C29.6857 20.8397 29.5197 20.6879 29.0784 20.4106C28.0993 19.7955 27.434 18.7226 27.4339 17.5001C27.4338 16.2773 28.0992 15.2044 29.0784 14.5891C29.5196 14.3119 29.6856 14.1602 29.7784 14.0392C30.0727 13.6556 30.2026 13.1709 30.1395 12.6915C30.1236 12.5708 30.0754 12.4013 29.9206 12.0853C29.7615 11.7604 29.529 11.3565 29.1817 10.7551C28.8345 10.1536 28.6009 9.75032 28.3992 9.45009C28.2029 9.15805 28.0802 9.03149 27.9836 8.95736C27.6 8.66304 27.1153 8.53315 26.6359 8.59625C26.4847 8.61616 26.2703 8.68409 25.8095 8.92764C24.7872 9.46797 23.5255 9.50774 22.4667 8.89645C21.4079 8.28516 20.8115 7.17258 20.7683 6.01707C20.7488 5.49626 20.7004 5.2766 20.642 5.1357C20.457 4.68903 20.1021 4.33416 19.6555 4.14914Z" fill="#6C6C6C"/>
</svg>
